<svg width="40" height="40" viewBox="0 0 40 40" fill="none" xmlns="http://www.w3.org/2000/svg">
<g clip-path="url(#clip0_1201_12)">
<path d="M20 40C31.0457 40 40 31.0457 40 20C40 8.9543 31.0457 0 20 0C8.9543 0 0 8.9543 0 20C0 31.0457 8.9543 40 20 40Z" fill="#004D61"/>
<path d="M29.7445 10.602L29.3932 10.2507C28.5082 9.36565 27.0712 9.36565 26.1816 10.2507L11.5237 24.9085C11.5237 24.9085 11.5146 24.9177 11.5146 24.9222C11.4918 24.9496 11.469 24.977 11.4553 25.0135C11.4553 25.0135 11.4462 25.0226 11.4462 25.0272L10.5292 27.4861L9.61222 29.9405C9.5666 30.0682 9.59398 30.2051 9.68978 30.3009C9.75821 30.3693 9.84489 30.4012 9.93613 30.4012C9.97263 30.4012 10.0182 30.3921 10.0547 30.3784L12.5091 29.4615L14.9635 28.5399H14.9726L14.9818 28.5308C15.0182 28.5126 15.0502 28.4943 15.0776 28.4669C15.0776 28.4669 15.0867 28.4669 15.0867 28.4578L29.7491 13.7954C30.1779 13.3666 30.4151 12.7963 30.4151 12.185C30.4151 11.5737 30.1825 11.0126 29.7491 10.5792L29.7445 10.602ZM10.5109 29.4843L10.9808 28.2343L11.7655 29.0189L10.5109 29.4843ZM12.4681 28.7498L11.2409 27.5226L11.8978 25.7708L14.2199 28.0974L12.4681 28.7498ZM27.9745 14.612L25.3832 12.0208L25.9307 11.4733L28.5219 14.0646L27.9745 14.612ZM29.2609 13.3255L29.01 13.581L26.4188 10.9897L26.6697 10.7343C27.2901 10.1184 28.2938 10.1184 28.9142 10.7343L29.2655 11.0901C29.5666 11.3866 29.7308 11.7881 29.7308 12.2078C29.7308 12.6275 29.5666 13.029 29.2655 13.3301L29.2609 13.3255Z" fill="white"/>
</g>
<defs>
<clipPath id="clip0_1201_12">
<rect width="40" height="40" fill="white"/>
</clipPath>
</defs>
</svg>
